<?xml version="1.0" encoding="utf-8"?>
<!-- Generator: Adobe Illustrator 27.5.0, SVG Export Plug-In . SVG Version: 6.00 Build 0)  -->
<svg version="1.1" xmlns="http://www.w3.org/2000/svg" xmlns:xlink="http://www.w3.org/1999/xlink" x="0px" y="0px"
	 viewBox="0 0 500 500" style="enable-background:new 0 0 500 500;" xml:space="preserve">
<g id="Background_Simple">
	<g>
		<path style="fill:#92E3A9;" d="M464.856,277.39c-14.722,39.433-44.804,82.112-87.135,94.748
			c-63.961,19.098-71.602,70.655-186.163,65.873c-17.862-0.744-34.371-3.255-49.538-7.264c-8.153-2.154-15.92-4.753-23.291-7.747
			C51.804,395.892,16.892,336.231,13.994,273.806c-3.825-82.102,53.46-121.236,90.69-144.15
			c37.231-22.914,82.102-111.701,194.76-107.885c17.176,0.589,34.313,2.937,50.919,7.438c37.907,10.259,76.441,32.951,98.834,66.124
			c1.681,2.492,3.285,5.043,4.82,7.641C483.984,153.816,484.93,223.631,464.856,277.39z"/>
		<path style="opacity:0.8;fill:#FFFFFF;" d="M464.856,277.39c-14.722,39.433-44.804,82.112-87.135,94.748
			c-63.961,19.098-71.602,70.655-186.163,65.873c-17.862-0.744-34.371-3.255-49.538-7.264c-8.153-2.154-15.92-4.753-23.291-7.747
			C51.804,395.892,16.892,336.231,13.994,273.806c-3.825-82.102,53.46-121.236,90.69-144.15
			c37.231-22.914,82.102-111.701,194.76-107.885c17.176,0.589,34.313,2.937,50.919,7.438c37.907,10.259,76.441,32.951,98.834,66.124
			c1.681,2.492,3.285,5.043,4.82,7.641C483.984,153.816,484.93,223.631,464.856,277.39z"/>
	</g>
</g>
<g id="Floor">
	
		<line style="fill:none;stroke:#263238;stroke-linecap:round;stroke-linejoin:round;stroke-miterlimit:10;" x1="27.848" y1="460.901" x2="476.132" y2="460.901"/>
</g>
<g id="Window">
	<g>
		
			<rect x="45.573" y="43.023" style="fill:none;stroke:#263238;stroke-linecap:round;stroke-linejoin:round;stroke-miterlimit:10;" width="155.575" height="211.582"/>
		
			<rect x="49.895" y="48.901" style="fill:none;stroke:#263238;stroke-linecap:round;stroke-linejoin:round;stroke-miterlimit:10;" width="146.931" height="199.827"/>
		<g>
			
				<line style="fill:none;stroke:#263238;stroke-linecap:round;stroke-linejoin:round;stroke-miterlimit:10;" x1="49.929" y1="59.31" x2="196.66" y2="59.31"/>
			
				<line style="fill:none;stroke:#263238;stroke-linecap:round;stroke-linejoin:round;stroke-miterlimit:10;" x1="49.929" y1="70.518" x2="196.66" y2="70.518"/>
			
				<line style="fill:none;stroke:#263238;stroke-linecap:round;stroke-linejoin:round;stroke-miterlimit:10;" x1="49.929" y1="81.727" x2="196.66" y2="81.727"/>
			
				<line style="fill:none;stroke:#263238;stroke-linecap:round;stroke-linejoin:round;stroke-miterlimit:10;" x1="49.929" y1="92.935" x2="196.66" y2="92.935"/>
			
				<line style="fill:none;stroke:#263238;stroke-linecap:round;stroke-linejoin:round;stroke-miterlimit:10;" x1="49.929" y1="104.143" x2="196.66" y2="104.143"/>
			
				<line style="fill:none;stroke:#263238;stroke-linecap:round;stroke-linejoin:round;stroke-miterlimit:10;" x1="49.929" y1="115.351" x2="196.66" y2="115.351"/>
			
				<line style="fill:none;stroke:#263238;stroke-linecap:round;stroke-linejoin:round;stroke-miterlimit:10;" x1="49.929" y1="126.559" x2="196.66" y2="126.559"/>
			
				<line style="fill:none;stroke:#263238;stroke-linecap:round;stroke-linejoin:round;stroke-miterlimit:10;" x1="49.929" y1="137.767" x2="196.66" y2="137.767"/>
			
				<line style="fill:none;stroke:#263238;stroke-linecap:round;stroke-linejoin:round;stroke-miterlimit:10;" x1="49.929" y1="148.975" x2="196.66" y2="148.975"/>
			
				<line style="fill:none;stroke:#263238;stroke-linecap:round;stroke-linejoin:round;stroke-miterlimit:10;" x1="49.929" y1="160.183" x2="196.66" y2="160.183"/>
			
				<line style="fill:none;stroke:#263238;stroke-linecap:round;stroke-linejoin:round;stroke-miterlimit:10;" x1="49.929" y1="171.391" x2="196.66" y2="171.391"/>
			
				<line style="fill:none;stroke:#263238;stroke-linecap:round;stroke-linejoin:round;stroke-miterlimit:10;" x1="49.929" y1="182.6" x2="196.66" y2="182.6"/>
			
				<line style="fill:none;stroke:#263238;stroke-linecap:round;stroke-linejoin:round;stroke-miterlimit:10;" x1="49.929" y1="193.808" x2="196.66" y2="193.808"/>
			
				<line style="fill:none;stroke:#263238;stroke-linecap:round;stroke-linejoin:round;stroke-miterlimit:10;" x1="49.929" y1="205.016" x2="196.66" y2="205.016"/>
			
				<line style="fill:none;stroke:#263238;stroke-linecap:round;stroke-linejoin:round;stroke-miterlimit:10;" x1="49.929" y1="216.224" x2="196.66" y2="216.224"/>
			
				<line style="fill:none;stroke:#263238;stroke-linecap:round;stroke-linejoin:round;stroke-miterlimit:10;" x1="49.929" y1="227.432" x2="196.66" y2="227.432"/>
			
				<line style="fill:none;stroke:#263238;stroke-linecap:round;stroke-linejoin:round;stroke-miterlimit:10;" x1="49.929" y1="238.64" x2="196.66" y2="238.64"/>
		</g>
	</g>
</g>
<g id="Barcode">
	<g>
		<rect x="268.957" y="43.023" style="fill:#263238;" width="3.065" height="144.823"/>
		<rect x="274.251" y="43.023" style="fill:#263238;" width="3.065" height="144.823"/>
		<rect x="286.789" y="43.023" style="fill:#263238;" width="3.065" height="131.761"/>
		<rect x="315.767" y="43.023" style="fill:#263238;" width="3.065" height="131.761"/>
		<rect x="335.55" y="43.023" style="fill:#263238;" width="3.065" height="131.761"/>
		<rect x="356.448" y="43.023" style="fill:#263238;" width="3.065" height="131.761"/>
		<rect x="362.02" y="43.023" style="fill:#263238;" width="3.065" height="144.823"/>
		<rect x="367.593" y="43.023" style="fill:#263238;" width="3.065" height="144.823"/>
		<rect x="387.933" y="43.023" style="fill:#263238;" width="3.065" height="131.761"/>
		<rect x="409.109" y="43.023" style="fill:#263238;" width="3.065" height="131.761"/>
		<rect x="429.45" y="43.023" style="fill:#263238;" width="3.065" height="131.761"/>
		<rect x="435.301" y="43.023" style="fill:#263238;" width="3.065" height="131.761"/>
		<rect x="449.79" y="43.023" style="fill:#263238;" width="3.065" height="131.761"/>
		<rect x="455.92" y="43.023" style="fill:#263238;" width="3.065" height="144.823"/>
		<rect x="461.771" y="43.023" style="fill:#263238;" width="3.065" height="144.823"/>
		<rect x="292.083" y="43.023" style="fill:#263238;" width="5.573" height="131.761"/>
		<rect x="300.999" y="43.023" style="fill:#263238;" width="5.573" height="131.761"/>
		<rect x="327.191" y="43.023" style="fill:#263238;" width="5.573" height="131.761"/>
		<rect x="341.68" y="43.023" style="fill:#263238;" width="5.573" height="131.761"/>
		<rect x="374.28" y="43.023" style="fill:#263238;" width="8.08" height="131.761"/>
		<rect x="394.342" y="43.023" style="fill:#263238;" width="8.08" height="131.761"/>
		<rect x="415.239" y="43.023" style="fill:#263238;" width="8.08" height="131.761"/>
		<g>
			<path style="fill:#263238;" d="M294.885,203.255c-1.302,0-2.338-0.261-3.109-0.781c-0.771-0.52-1.334-1.259-1.688-2.217
				c-0.353-0.958-0.529-2.068-0.529-3.333c0-0.985,0.098-1.808,0.293-2.468c0.194-0.66,0.45-1.203,0.767-1.631
				c0.315-0.427,0.669-0.771,1.06-1.032c0.391-0.26,0.771-0.483,1.143-0.669c-0.911-0.372-1.646-0.99-2.203-1.855
				c-0.558-0.865-0.837-2.012-0.837-3.444c0-1.097,0.167-2.073,0.502-2.928c0.335-0.854,0.879-1.524,1.632-2.007
				s1.742-0.725,2.97-0.725c1.227,0,2.207,0.246,2.941,0.739c0.734,0.493,1.269,1.167,1.603,2.022
				c0.335,0.855,0.502,1.84,0.502,2.956c0,1.432-0.274,2.565-0.822,3.402c-0.549,0.837-1.278,1.45-2.189,1.841
				c0.372,0.186,0.748,0.409,1.13,0.669c0.381,0.261,0.728,0.604,1.045,1.032c0.316,0.428,0.576,0.972,0.781,1.631
				c0.204,0.66,0.307,1.483,0.307,2.468c0,1.265-0.177,2.375-0.53,3.333c-0.353,0.958-0.915,1.697-1.687,2.217
				C297.194,202.994,296.167,203.255,294.885,203.255z M294.885,201.638c0.743,0,1.357-0.172,1.84-0.516
				c0.483-0.344,0.846-0.864,1.088-1.561c0.241-0.697,0.362-1.576,0.362-2.635c0-0.929-0.108-1.743-0.32-2.44
				c-0.214-0.697-0.558-1.259-1.032-1.687c-0.474-0.427-1.12-0.669-1.938-0.725c-0.818,0.056-1.474,0.298-1.966,0.725
				c-0.493,0.428-0.847,0.99-1.061,1.687c-0.214,0.697-0.32,1.511-0.32,2.44c0,1.06,0.126,1.938,0.377,2.635
				c0.251,0.697,0.622,1.218,1.115,1.561C293.522,201.466,294.141,201.638,294.885,201.638z M294.885,190.205
				c0.78-0.037,1.389-0.251,1.826-0.641c0.436-0.391,0.748-0.911,0.935-1.562c0.185-0.65,0.278-1.384,0.278-2.203
				c0-1.301-0.242-2.291-0.725-2.97c-0.484-0.679-1.255-1.018-2.314-1.018c-1.079,0-1.864,0.339-2.356,1.018
				c-0.493,0.679-0.739,1.669-0.739,2.97c0,0.818,0.093,1.552,0.279,2.203c0.186,0.651,0.506,1.171,0.962,1.562
				C293.485,189.954,294.104,190.167,294.885,190.205z"/>
			<path style="fill:#263238;" d="M311.644,203.255c-1.135,0-2.082-0.195-2.845-0.585c-0.763-0.391-1.334-0.98-1.715-1.771
				c-0.381-0.79-0.581-1.761-0.6-2.914c0-0.037,0-0.111,0-0.223c0-0.112,0-0.177,0-0.195h2.008c0,1.432,0.228,2.454,0.684,3.067
				c0.455,0.613,1.287,0.92,2.495,0.92c0.632,0,1.176-0.148,1.632-0.446c0.455-0.297,0.804-0.804,1.046-1.52
				c0.241-0.715,0.362-1.677,0.362-2.886v-4.266c-0.279,0.335-0.721,0.641-1.325,0.92c-0.604,0.279-1.371,0.419-2.3,0.419
				c-1.246,0-2.222-0.237-2.929-0.711c-0.706-0.474-1.208-1.208-1.506-2.203c-0.297-0.994-0.445-2.272-0.445-3.834
				c0-1.395,0.181-2.602,0.543-3.625c0.363-1.022,0.939-1.817,1.73-2.384c0.79-0.567,1.826-0.85,3.109-0.85
				c1.227,0,2.221,0.284,2.983,0.85c0.762,0.567,1.319,1.376,1.673,2.426c0.353,1.05,0.53,2.31,0.53,3.778v9.007
				c0,1.376-0.168,2.593-0.502,3.653c-0.335,1.06-0.869,1.887-1.603,2.482C313.935,202.958,312.926,203.255,311.644,203.255z
				 M311.56,192.185c0.799,0,1.459-0.144,1.979-0.432s0.911-0.581,1.172-0.878v-3.876c0-1.227-0.107-2.217-0.321-2.97
				c-0.214-0.753-0.553-1.301-1.018-1.645c-0.465-0.344-1.06-0.516-1.784-0.516c-0.725,0-1.335,0.172-1.827,0.516
				c-0.492,0.344-0.859,0.869-1.102,1.576c-0.241,0.707-0.362,1.599-0.362,2.677c0,1.246,0.07,2.277,0.209,3.095
				c0.14,0.818,0.441,1.432,0.906,1.84C309.877,191.98,310.593,192.185,311.56,192.185z"/>
			<path style="fill:#263238;" d="M329.573,202.976v-6.609h-6.804v-2.063l6.413-13.915h2.398v14.138h2.594v1.84h-2.594v6.609
				H329.573z M324.833,194.527h4.74v-11.433L324.833,194.527z"/>
			<path style="fill:#263238;" d="M340.7,202.976l4.406-20.942h-6.832v-1.645h8.923v1.004l-4.518,21.583H340.7z"/>
		</g>
		<g>
			<path style="fill:#263238;" d="M385.523,203.255c-1.339,0-2.398-0.288-3.179-0.864c-0.781-0.576-1.339-1.367-1.673-2.371
				c-0.335-1.003-0.502-2.147-0.502-3.43v-9.815c0-1.301,0.171-2.449,0.516-3.444c0.344-0.995,0.91-1.771,1.701-2.329
				c0.79-0.558,1.835-0.836,3.137-0.836c1.339,0,2.398,0.279,3.179,0.836c0.781,0.558,1.343,1.334,1.688,2.329
				c0.344,0.995,0.516,2.143,0.516,3.444v9.815c0,1.301-0.167,2.454-0.502,3.458c-0.335,1.003-0.893,1.789-1.673,2.356
				C387.949,202.972,386.88,203.255,385.523,203.255z M385.523,201.638c0.874,0,1.548-0.218,2.022-0.655
				c0.475-0.437,0.809-1.022,1.004-1.757c0.195-0.734,0.293-1.557,0.293-2.468v-10.123c0-0.911-0.098-1.733-0.293-2.468
				c-0.195-0.734-0.525-1.315-0.989-1.743c-0.465-0.428-1.144-0.642-2.036-0.642c-0.855,0-1.52,0.214-1.994,0.642
				c-0.474,0.428-0.809,1.008-1.004,1.743c-0.194,0.734-0.292,1.557-0.292,2.468v10.123c0,0.911,0.098,1.733,0.292,2.468
				c0.195,0.734,0.534,1.32,1.019,1.757C384.026,201.419,384.687,201.638,385.523,201.638z"/>
			<path style="fill:#263238;" d="M402.729,203.255c-1.339,0-2.398-0.288-3.179-0.864c-0.781-0.576-1.339-1.367-1.673-2.371
				c-0.335-1.003-0.502-2.147-0.502-3.43v-9.815c0-1.301,0.171-2.449,0.516-3.444c0.344-0.995,0.91-1.771,1.701-2.329
				c0.79-0.558,1.835-0.836,3.137-0.836c1.339,0,2.398,0.279,3.179,0.836c0.781,0.558,1.343,1.334,1.688,2.329
				c0.344,0.995,0.516,2.143,0.516,3.444v9.815c0,1.301-0.167,2.454-0.502,3.458c-0.335,1.003-0.893,1.789-1.673,2.356
				C405.154,202.972,404.085,203.255,402.729,203.255z M402.729,201.638c0.874,0,1.548-0.218,2.022-0.655
				c0.475-0.437,0.809-1.022,1.004-1.757c0.195-0.734,0.293-1.557,0.293-2.468v-10.123c0-0.911-0.098-1.733-0.293-2.468
				c-0.195-0.734-0.525-1.315-0.989-1.743c-0.465-0.428-1.144-0.642-2.036-0.642c-0.855,0-1.52,0.214-1.994,0.642
				c-0.474,0.428-0.809,1.008-1.004,1.743c-0.194,0.734-0.292,1.557-0.292,2.468v10.123c0,0.911,0.098,1.733,0.292,2.468
				c0.195,0.734,0.534,1.32,1.019,1.757C401.231,201.419,401.892,201.638,402.729,201.638z"/>
			<path style="fill:#263238;" d="M419.934,203.255c-1.339,0-2.398-0.288-3.179-0.864c-0.781-0.576-1.339-1.367-1.673-2.371
				c-0.335-1.003-0.502-2.147-0.502-3.43v-9.815c0-1.301,0.171-2.449,0.516-3.444c0.344-0.995,0.91-1.771,1.701-2.329
				c0.79-0.558,1.835-0.836,3.137-0.836c1.339,0,2.398,0.279,3.179,0.836c0.781,0.558,1.343,1.334,1.688,2.329
				c0.344,0.995,0.516,2.143,0.516,3.444v9.815c0,1.301-0.167,2.454-0.502,3.458c-0.335,1.003-0.892,1.789-1.673,2.356
				C422.359,202.972,421.29,203.255,419.934,203.255z M419.934,201.638c0.874,0,1.548-0.218,2.021-0.655
				c0.475-0.437,0.809-1.022,1.004-1.757c0.195-0.734,0.293-1.557,0.293-2.468v-10.123c0-0.911-0.098-1.733-0.293-2.468
				c-0.195-0.734-0.525-1.315-0.989-1.743c-0.465-0.428-1.144-0.642-2.036-0.642c-0.855,0-1.52,0.214-1.994,0.642
				c-0.474,0.428-0.809,1.008-1.004,1.743c-0.194,0.734-0.292,1.557-0.292,2.468v10.123c0,0.911,0.098,1.733,0.292,2.468
				c0.195,0.734,0.534,1.32,1.019,1.757C418.437,201.419,419.097,201.638,419.934,201.638z"/>
			<path style="fill:#263238;" d="M432.817,202.976l4.406-20.942h-6.832v-1.645h8.923v1.004l-4.518,21.583H432.817z"/>
		</g>
	</g>
</g>
<g id="Boxes">
	<g>
		<rect id="XMLID_12_" x="144.975" y="368.071" style="fill:#92E3A9;" width="102.024" height="92.642"/>
		
			<rect id="XMLID_11_" x="144.975" y="368.071" style="opacity:0.3;stroke:#263238;stroke-linecap:round;stroke-linejoin:round;stroke-miterlimit:10;" width="102.024" height="92.642"/>
		
			<rect id="XMLID_10_" x="144.975" y="368.071" style="fill:none;stroke:#263238;stroke-linecap:round;stroke-linejoin:round;stroke-miterlimit:10;" width="102.024" height="92.642"/>
		
			<rect x="144.975" y="368.071" style="fill:#92E3A9;stroke:#263238;stroke-linecap:round;stroke-linejoin:round;stroke-miterlimit:10;" width="72.707" height="92.642"/>
		
			<rect x="173.072" y="368.071" style="fill:#FFFFFF;stroke:#263238;stroke-linecap:round;stroke-linejoin:round;stroke-miterlimit:10;" width="15.621" height="25.864"/>
		<rect x="192.693" y="401.488" style="fill:#FFFFFF;" width="18.109" height="9.239"/>
		
			<rect x="154.685" y="414.518" transform="matrix(0.9707 0.2402 -0.2402 0.9707 105.74 -27.1583)" style="fill:#FFFFFF;" width="19.217" height="11.457"/>
	</g>
	<g>
		<rect id="XMLID_9_" x="225.21" y="368.071" style="fill:#92E3A9;" width="102.024" height="92.642"/>
		
			<rect id="XMLID_8_" x="225.21" y="368.071" style="opacity:0.3;stroke:#263238;stroke-linecap:round;stroke-linejoin:round;stroke-miterlimit:10;" width="102.024" height="92.642"/>
		
			<rect id="XMLID_7_" x="225.21" y="368.071" style="fill:none;stroke:#263238;stroke-linecap:round;stroke-linejoin:round;stroke-miterlimit:10;" width="102.024" height="92.642"/>
		
			<rect x="225.21" y="368.071" style="fill:#92E3A9;stroke:#263238;stroke-linecap:round;stroke-linejoin:round;stroke-miterlimit:10;" width="72.707" height="92.642"/>
		
			<rect x="253.308" y="368.071" style="fill:#FFFFFF;stroke:#263238;stroke-linecap:round;stroke-linejoin:round;stroke-miterlimit:10;" width="15.621" height="25.864"/>
		<rect x="265.531" y="438.285" style="fill:#FFFFFF;" width="18.109" height="9.239"/>
		
			<rect x="234.921" y="414.518" transform="matrix(0.9707 0.2402 -0.2402 0.9707 108.0885 -46.4286)" style="fill:#FFFFFF;" width="19.217" height="11.457"/>
	</g>
	<g>
		<rect id="XMLID_15_" x="306.027" y="368.071" style="fill:#92E3A9;" width="102.024" height="92.642"/>
		
			<rect id="XMLID_14_" x="306.027" y="368.071" style="opacity:0.3;stroke:#263238;stroke-linecap:round;stroke-linejoin:round;stroke-miterlimit:10;" width="102.024" height="92.642"/>
		
			<rect id="XMLID_13_" x="306.027" y="368.071" style="fill:none;stroke:#263238;stroke-linecap:round;stroke-linejoin:round;stroke-miterlimit:10;" width="102.024" height="92.642"/>
		
			<rect x="306.027" y="368.071" style="fill:#92E3A9;stroke:#263238;stroke-linecap:round;stroke-linejoin:round;stroke-miterlimit:10;" width="72.707" height="92.642"/>
		
			<rect x="334.125" y="368.071" style="fill:#FFFFFF;stroke:#263238;stroke-linecap:round;stroke-linejoin:round;stroke-miterlimit:10;" width="15.621" height="25.864"/>
		
			<rect x="353.745" y="401.488" transform="matrix(0.7216 0.6923 -0.6923 0.7216 382.1539 -138.1096)" style="fill:#FFFFFF;" width="18.109" height="9.239"/>
		
			<rect x="315.737" y="414.518" transform="matrix(0.9707 0.2402 -0.2402 0.9707 110.454 -65.8385)" style="fill:#FFFFFF;" width="19.217" height="11.457"/>
	</g>
	<g>
		<rect id="XMLID_1_" x="186.644" y="275.867" style="fill:#92E3A9;" width="102.024" height="92.642"/>
		
			<rect id="XMLID_2_" x="186.644" y="275.867" style="opacity:0.3;stroke:#263238;stroke-linecap:round;stroke-linejoin:round;stroke-miterlimit:10;" width="102.024" height="92.642"/>
		
			<rect id="XMLID_5_" x="186.644" y="275.867" style="fill:none;stroke:#263238;stroke-linecap:round;stroke-linejoin:round;stroke-miterlimit:10;" width="102.024" height="92.642"/>
		
			<rect x="186.644" y="275.867" style="fill:#92E3A9;stroke:#263238;stroke-linecap:round;stroke-linejoin:round;stroke-miterlimit:10;" width="72.707" height="92.642"/>
		
			<rect x="214.742" y="275.867" style="fill:#FFFFFF;stroke:#263238;stroke-linecap:round;stroke-linejoin:round;stroke-miterlimit:10;" width="15.621" height="25.864"/>
		<rect x="234.362" y="309.284" style="fill:#FFFFFF;" width="18.109" height="9.239"/>
		
			<rect x="229.956" y="336.993" transform="matrix(0.9707 0.2402 -0.2402 0.9707 89.324 -47.5055)" style="fill:#FFFFFF;" width="19.217" height="11.457"/>
	</g>
	<g>
		<rect id="XMLID_6_" x="266.879" y="275.867" style="fill:#92E3A9;" width="102.024" height="92.642"/>
		
			<rect id="XMLID_4_" x="266.879" y="275.867" style="opacity:0.3;stroke:#263238;stroke-linecap:round;stroke-linejoin:round;stroke-miterlimit:10;" width="102.024" height="92.642"/>
		
			<rect id="XMLID_3_" x="266.879" y="275.867" style="fill:none;stroke:#263238;stroke-linecap:round;stroke-linejoin:round;stroke-miterlimit:10;" width="102.024" height="92.642"/>
		
			<rect x="266.879" y="275.867" style="fill:#92E3A9;stroke:#263238;stroke-linecap:round;stroke-linejoin:round;stroke-miterlimit:10;" width="72.707" height="92.642"/>
		
			<rect x="294.977" y="275.867" style="fill:#FFFFFF;stroke:#263238;stroke-linecap:round;stroke-linejoin:round;stroke-miterlimit:10;" width="15.621" height="25.864"/>
		<rect x="300.994" y="310.618" style="fill:#FFFFFF;" width="18.109" height="9.239"/>
		
			<rect x="276.59" y="322.313" transform="matrix(0.9707 0.2402 -0.2402 0.9707 87.1633 -59.1352)" style="fill:#FFFFFF;" width="19.217" height="11.457"/>
	</g>
</g>
<g id="Character">
	<g>
		<g>
			<path style="fill:#263238;stroke:#263238;stroke-linecap:round;stroke-linejoin:round;stroke-miterlimit:10;" d="M97.121,278.763
				c0,0,4.866,50.482,5.17,57.476c0.304,6.995-3.041,10.644-3.041,24.025s3.345,76.635,3.345,76.635s-3.041,17.638-4.257,20.071
				c-1.216,2.433,0.912,3.953,2.433,3.953s16.726,0,16.726,0s2.129-3.345,1.521-6.386c-0.608-3.041-3.041-19.159-3.041-19.159
				s17.334-86.975,18.246-92.448c0.912-5.474,8.515-56.564,8.515-56.564l-0.912,49.569c0,0-2.129,21.592,0.304,37.101
				c2.433,15.509,9.427,64.775,9.427,64.775l0.304,23.112h39.23c0,0,1.216-2.737-0.912-4.258c-2.129-1.521-8.515-4.562-11.556-7.603
				c-3.041-3.041-11.556-12.772-11.556-12.772s3.649-56.564,4.866-72.073c1.217-15.51,3.041-25.849,4.258-34.364
				c1.216-8.515,4.257-45.008,4.257-52.915c0-7.907-33.756-12.468-33.756-12.468l-49.874,5.17L97.121,278.763z"/>
			<g>
				<path style="fill:#FFFFFF;stroke:#263238;stroke-linecap:round;stroke-linejoin:round;stroke-miterlimit:10;" d="
					M119.021,454.535c-0.559-2.793-2.667-16.652-3.004-18.855h-13.491c0.042,0.79,0.074,1.223,0.074,1.223
					s-3.046,17.633-4.258,20.067c-1.223,2.435,0.906,3.952,2.424,3.952c1.528,0,16.726,0,16.726,0s1.149-1.792,1.518-3.952
					C119.147,456.179,119.179,455.347,119.021,454.535z M190.552,456.97c-0.105-0.105-0.232-0.211-0.369-0.306
					c-2.129-1.518-8.516-4.564-11.562-7.599c-3.035-3.046-11.551-12.774-11.551-12.774s0-0.032,0-0.063l-15.767-0.211
					c0.158,1.149,0.253,1.792,0.253,1.792l0.253,19.161l0.053,3.952h39.228C191.09,460.922,192.165,458.519,190.552,456.97z"/>
				<path style="fill:#FFFFFF;stroke:#263238;stroke-linecap:round;stroke-linejoin:round;stroke-miterlimit:10;" d="M98.342,456.97
					h20.668c-0.369,2.161-1.518,3.952-1.518,3.952s-15.198,0-16.726,0C99.249,460.922,97.12,459.404,98.342,456.97z"/>
				<path style="fill:#FFFFFF;stroke:#263238;stroke-linecap:round;stroke-linejoin:round;stroke-miterlimit:10;" d="
					M191.09,460.922h-39.228l-0.053-3.952h38.743C192.165,458.519,191.09,460.922,191.09,460.922z"/>
			</g>
		</g>
		<g>
			<path style="fill:#263238;stroke:#263238;stroke-linecap:round;stroke-linejoin:round;stroke-miterlimit:10;" d="
				M178.135,182.383l9.051,12.699l21.074,8.916l-5.809,14.455c0,0-18.508-0.675-21.345-1.891c-2.837-1.216-4.593-2.837-4.593-2.837
				l0.135-31.882L178.135,182.383z"/>
			<g>
				
					<rect x="197.94" y="188.12" transform="matrix(0.9344 0.3563 -0.3563 0.9344 96.1528 -65.7641)" style="fill:#92E3A9;stroke:#263238;stroke-linecap:round;stroke-linejoin:round;stroke-miterlimit:10;" width="57.266" height="79.95"/>
				
					<rect x="240.052" y="195.878" transform="matrix(0.9344 0.3563 -0.3563 0.9344 100.2529 -72.5035)" style="fill:#92E3A9;" width="13.725" height="79.95"/>
				
					<rect x="240.052" y="195.878" transform="matrix(0.9344 0.3563 -0.3563 0.9344 100.2529 -72.5035)" style="opacity:0.3;stroke:#263238;stroke-linecap:round;stroke-linejoin:round;stroke-miterlimit:10;" width="13.725" height="79.95"/>
				
					<rect x="240.052" y="195.878" transform="matrix(0.9344 0.3563 -0.3563 0.9344 100.2529 -72.5035)" style="fill:none;stroke:#263238;stroke-linecap:round;stroke-linejoin:round;stroke-miterlimit:10;" width="13.725" height="79.95"/>
			</g>
			<g>
				<path style="fill:#FFFFFF;stroke:#263238;stroke-linecap:round;stroke-linejoin:round;stroke-miterlimit:10;" d="
					M224.607,184.14c0,0,4.458-1.891,4.998-1.486c0.54,0.405,0.946,3.918,0.946,3.918L224.607,184.14z"/>
				<path style="fill:#FFFFFF;stroke:#263238;stroke-linecap:round;stroke-linejoin:round;stroke-miterlimit:10;" d="
					M229.605,182.654c0,0,3.918,0.405,4.728,1.756c0.811,1.351,0,3.918,0,3.918l-3.783-1.756L229.605,182.654z"/>
				<path style="fill:#FFFFFF;stroke:#263238;stroke-linecap:round;stroke-linejoin:round;stroke-miterlimit:10;" d="
					M234.333,184.41c0,0,2.837,0.135,3.242,1.216c0.405,1.081,0.405,3.783,0.405,3.783l-3.647-1.081
					C234.333,188.327,235.279,185.761,234.333,184.41z"/>
				<path style="fill:#FFFFFF;stroke:#263238;stroke-linecap:round;stroke-linejoin:round;stroke-miterlimit:10;" d="
					M237.576,185.626c0,0,3.377-0.405,3.783,1.756c0.405,2.161,0.135,3.647,0.135,3.647l-3.512-1.621
					C237.981,189.408,238.386,186.166,237.576,185.626z"/>
			</g>
		</g>
		<g>
			<path style="fill:#92E3A9;stroke:#263238;stroke-linecap:round;stroke-linejoin:round;stroke-miterlimit:10;" d="
				M185.072,280.339c0,0-6.018,1.697-12.795,1.086c-6.777-0.622-17.411-7.251-17.411-7.251s-20.331,7.399-35.581,9.707
				c-15.261,2.319-27.74-3.541-27.74-3.541l2.003-23.861l1.328-15.82l1.223-14.544l0.074-0.927c0,0-1.57-6.303-3.373-14.776
				c-2.466-11.541-5.343-27.139-5.259-36.372c0.158-16.03,9.707-20.952,9.707-20.952l27.582-11.867
				c12.626-0.464,16.484,3.541,23.419,4.932c6.935,1.381,27.729,10.94,28.963,13.712c0.864,1.95,1.739,30.038,2.171,47.554
				c0.19,7.357,0.295,12.848,0.295,13.765c0,0.274,0.042,0.98,0.126,2.034c0.232,3.12,0.78,9.317,1.444,16.515
				c0.453,5.006,0.97,10.508,1.465,15.788C183.944,268.577,185.072,280.339,185.072,280.339z"/>
			<g>
				<path style="fill:#FFFFFF;stroke:#263238;stroke-linecap:round;stroke-linejoin:round;stroke-miterlimit:10;" d="
					M96.171,225.186c0,0-1.57-6.303-3.373-14.776l86.582-2.993c0.19,7.357,0.295,12.848,0.295,13.765
					c0,0.274,0.042,0.98,0.126,2.034l-83.705,2.898L96.171,225.186z"/>
				<path style="fill:#FFFFFF;stroke:#263238;stroke-linecap:round;stroke-linejoin:round;stroke-miterlimit:10;" d="
					M182.711,255.518l-89.164,0.959l1.328-15.82l86.371-0.927C181.699,244.736,182.215,250.238,182.711,255.518z"/>
			</g>
			<path style="fill:none;stroke:#263238;stroke-linecap:round;stroke-linejoin:round;stroke-miterlimit:10;" d="M153.685,208.515
				c0,0,2.433,40.446,0.304,62.95"/>
		</g>
		<g>
			<path style="fill:#263238;stroke:#263238;stroke-linecap:round;stroke-linejoin:round;stroke-miterlimit:10;" d="
				M163.805,131.048c0,0,1.695,14.637,2.003,16.023c0.308,1.387-2.927,2.003-8.474,1.387c-5.546-0.616-5.546-0.616-5.546-0.616
				s3.235-5.701,4.16-7.241C156.872,139.059,163.805,131.048,163.805,131.048z"/>
			<g>
				<path style="fill:#FFFFFF;stroke:#263238;stroke-linecap:round;stroke-linejoin:round;stroke-miterlimit:10;" d="
					M150.247,147.841c0,0-0.154,1.849,0.308,5.084c0.462,3.235,2.619,30.352,2.311,33.895c-0.308,3.544-0.462,4.776-0.462,4.776
					s-9.244-22.186-15.715-31.892c-6.471-9.706-9.552-14.328-9.86-15.099c-0.308-0.77-1.078-22.956-1.078-22.956
					s4.006,1.387,5.855,4.468c1.849,3.081,7.549,9.552,11.555,14.02C147.165,144.606,150.247,147.841,150.247,147.841z"/>
				<polygon style="fill:#263238;stroke:#263238;stroke-linecap:round;stroke-linejoin:round;stroke-miterlimit:10;" points="
					138.753,140.358 148.313,156.086 150.747,154.631 151.788,147.841 136.364,135.071 				"/>
				<path style="fill:#263238;stroke:#263238;stroke-linecap:round;stroke-linejoin:round;stroke-miterlimit:10;" d="
					M145.471,157.702c-4.577,0.915-15.586-11.149-18.813-14.822c0.065,0.977,0.124,1.607,0.171,1.726
					c0.308,0.77,3.39,5.392,9.86,15.099c6.471,9.706,15.715,31.892,15.715,31.892s0.154-1.233,0.462-4.776
					c0.277-3.181-1.432-25.342-2.119-32.19C149.636,155.9,147.947,157.206,145.471,157.702z"/>
			</g>
			<g>
				<path style="fill:#FFFFFF;stroke:#263238;stroke-linecap:round;stroke-linejoin:round;stroke-miterlimit:10;" d="
					M167.348,111.943c0,0-1.849,10.785-1.849,13.404c0,2.619,0.154,6.317-3.698,11.709c-3.852,5.392-7.087,10.939-9.244,11.709
					c-2.157,0.77-5.855,0.462-8.782-2.003c-2.927-2.465-10.323-13.712-11.247-14.791c-0.924-1.078-1.695-2.927-1.695-2.927
					l-2.157-2.465c0,0-4.314-1.387-4.006-6.779c0.308-5.392,4.16-7.395,4.16-7.395l6.779-6.009
					C135.61,106.397,149.014,113.022,167.348,111.943z"/>
				<path style="fill:none;stroke:#263238;stroke-linecap:round;stroke-linejoin:round;stroke-miterlimit:10;" d="M160.415,118.568
					c0,0-1.849,5.238-1.849,5.701c0,0.462,1.695,9.09,0.77,9.706c-0.924,0.616-6.009-0.77-6.009-0.77"/>
				<path style="fill:none;stroke:#263238;stroke-linecap:round;stroke-linejoin:round;stroke-miterlimit:10;" d="M145.625,132.743
					c0,0,3.698,5.238,9.86,4.16"/>
				<ellipse style="fill:#263238;" cx="149.191" cy="121.373" rx="1.409" ry="2.28"/>
				<ellipse style="fill:#263238;" cx="162.903" cy="122.266" rx="1.409" ry="2.28"/>
				<path style="fill:none;stroke:#263238;stroke-linecap:round;stroke-linejoin:round;stroke-miterlimit:10;" d="M146.857,117.49
					c0,0,2.619-2.311,6.471-1.541"/>
				<path style="fill:none;stroke:#263238;stroke-linecap:round;stroke-linejoin:round;stroke-miterlimit:10;" d="M161.956,116.719
					c0,0,1.849-0.924,4.006,0.77"/>
			</g>
			<path style="fill:#263238;stroke:#263238;stroke-linecap:round;stroke-linejoin:round;stroke-miterlimit:10;" d="
				M137.613,110.094c0,0,0.616,3.852-0.77,5.701c-1.387,1.849-3.852,3.698-3.852,3.698s-2.619-4.622-5.084-2.619
				c-2.465,2.003-1.849,4.93-1.233,6.471c0.616,1.541,2.003,3.235,2.003,3.235l-0.462,18.796c0,0-5.855-0.308-10.939-1.232
				c-5.084-0.924-9.244-4.776-9.244-4.776s-0.462-6.317,2.619-13.712c3.081-7.395,7.241-13.404,7.241-13.404l1.849-7.395
				L137.613,110.094z"/>
			<path style="fill:#FFFFFF;stroke:#263238;stroke-linecap:round;stroke-linejoin:round;stroke-miterlimit:10;" d="
				M114.605,105.299c0,0,26.854,7.635,29.487,8.951c2.633,1.316,26.064,0.79,29.487-1.053c3.423-1.843-2.106-6.319-2.106-6.319
				s-3.399-3.942-3.662-5.258c-0.263-1.316,0.554-14.724-5.238-21.57c-5.792-6.845-21.374-7.811-28.195-6.471
				c-8.628,1.695-15.56,8.287-16.35,11.183c-0.79,2.896-1.053,14.744-1.316,15.533C116.448,101.087,114.605,105.299,114.605,105.299
				z"/>
		</g>
		<g>
			<g>
				<path style="fill:#92E3A9;stroke:#263238;stroke-linecap:round;stroke-linejoin:round;stroke-miterlimit:10;" d="
					M181.215,187.129c0,0,1.695-5.084,3.236-5.238s5.701,2.927,6.933,2.157c1.232-0.77,5.855-11.401,4.93-13.404
					c-0.924-2.003-20.337-8.474-22.956-8.012c-2.619,0.462-7.395,22.186-7.395,22.186L181.215,187.129z"/>
				<path style="fill:#263238;stroke:#263238;stroke-linecap:round;stroke-linejoin:round;stroke-miterlimit:10;" d="
					M192.618,168.444l-5.531,14.307c1.68,0.791,3.539,1.769,4.296,1.296c1.232-0.77,5.855-11.401,4.93-13.404
					C196.079,170.136,194.654,169.34,192.618,168.444z"/>
				<path style="fill:#263238;stroke:#263238;stroke-linecap:round;stroke-linejoin:round;stroke-miterlimit:10;" d="
					M167.982,185.124l6.344-22.468c-0.419-0.049-0.755-0.061-0.969-0.023c-2.619,0.462-7.395,22.186-7.395,22.186L167.982,185.124z"
					/>
			</g>
			<path style="fill:#FFFFFF;stroke:#263238;stroke-linecap:round;stroke-linejoin:round;stroke-miterlimit:10;" d="
				M149.939,195.603c0,0,16.023-12.634,16.485-12.634c0.462,0,15.869,2.157,16.485,4.16s0.154,3.544,0,4.006
				s-1.541,1.079-2.003,1.387c-0.462,0.308-2.311,7.395-4.16,9.09c-1.849,1.695-2.773,2.157-5.855,1.695
				c-3.081-0.462-7.241-2.619-7.241-2.619l-10.014,3.698L149.939,195.603z"/>
			<g>
				<path style="fill:#263238;stroke:#263238;stroke-linecap:round;stroke-linejoin:round;stroke-miterlimit:10;" d="
					M116.814,203.614c0,0-11.093-42.215-14.328-46.067c-3.235-3.852-6.163-4.93-12.171,2.773c-6.009,7.703-2.927,25.575,0.77,43.601
					c3.698,18.026,10.323,28.349,12.326,28.195c2.003-0.154,51.305-26.038,51.305-26.038l-4.006-11.555L116.814,203.614z"/>
				<path style="fill:none;stroke:#FFFFFF;stroke-linecap:round;stroke-linejoin:round;stroke-miterlimit:10;" d="M115.581,204.385
					c0,0-5.238,0.77-8.32,5.855"/>
				<path style="fill:none;stroke:#FFFFFF;stroke-linecap:round;stroke-linejoin:round;stroke-miterlimit:10;" d="M108.186,205.155
					c0,0-1.387,1.232-3.081,6.779"/>
			</g>
		</g>
	</g>
</g>
</svg>
